ffmpeg version 4.2.7-0ubuntu0.1 Copyright (c) 2000-2022 the FFmpeg developers
  built with gcc 9 (Ubuntu 9.4.0-1ubuntu1~20.04.1)
  configuration: --prefix=/usr --extra-version=0ubuntu0.1 --toolchain=hardened --libdir=/usr/lib/x86_64-linux-gnu --incdir=/usr/include/x86_64-linux-gnu --arch=amd64 --enable-gpl --disable-stripping --enable-avresample --disable-filter=resample --enable-avisynth --enable-gnutls --enable-ladspa --enable-libaom --enable-libass --enable-libbluray --enable-libbs2b --enable-libcaca --enable-libcdio --enable-libcodec2 --enable-libflite --enable-libfontconfig --enable-libfreetype --enable-libfribidi --enable-libgme --enable-libgsm --enable-libjack --enable-libmp3lame --enable-libmysofa --enable-libopenjpeg --enable-libopenmpt --enable-libopus --enable-libpulse --enable-librsvg --enable-librubberband --enable-libshine --enable-libsnappy --enable-libsoxr --enable-libspeex --enable-libssh --enable-libtheora --enable-libtwolame --enable-libvidstab --enable-libvorbis --enable-libvpx --enable-libwavpack --enable-libwebp --enable-libx265 --enable-libxml2 --enable-libxvid --enable-libzmq --enable-libzvbi --enable-lv2 --enable-omx --enable-openal --enable-opencl --enable-opengl --enable-sdl2 --enable-libdc1394 --enable-libdrm --enable-libiec61883 --enable-nvenc --enable-chromaprint --enable-frei0r --enable-libx264 --enable-shared
  libavutil      56. 31.100 / 56. 31.100
  libavcodec     58. 54.100 / 58. 54.100
  libavformat    58. 29.100 / 58. 29.100
  libavdevice    58.  8.100 / 58.  8.100
  libavfilter     7. 57.100 /  7. 57.100
  libavresample   4.  0.  0 /  4.  0.  0
  libswscale      5.  5.100 /  5.  5.100
  libswresample   3.  5.100 /  3.  5.100
  libpostproc    55.  5.100 / 55.  5.100
Routing option strict to both codec and muxer layer
[h264 @ 0x5625ebf41a80] Reinit context to 640x352, pix_fmt: yuv420p
Input #0, mov,mp4,m4a,3gp,3g2,mj2, from '/var/www/html/project/media/video/original/3b8f1d9f-4357-478c-b1a0-f3b876b9cb78.mp4':
  Metadata:
    major_brand     : qt  
    minor_version   : 0
    compatible_brands: qt  
    creation_time   : 2023-05-05T13:44:16.000000Z
    com.apple.photos.originating.signature: AdsmqO0JlER9/CoZSK5D7NfIensC
    com.apple.quicktime.creationdate: 2023-05-05T15:41:32+02:00
  Duration: 00:00:12.07, start: 0.000000, bitrate: 2637 kb/s
    Stream #0:0(und): Audio: aac (LC) (mp4a / 0x6134706D), 48000 Hz, stereo, fltp, 96 kb/s (default)
    Metadata:
      creation_time   : 2023-05-05T13:44:16.000000Z
      handler_name    : Core Media Audio
    Stream #0:1(und): Video: h264 (High), 1 reference frame (avc1 / 0x31637661), yuv420p(tv, bt470bg/bt470bg/smpte170m, progressive, left), 640x352, 2535 kb/s, 29.91 fps, 90k tbr, 90k tbn, 180k tbc (default)
    Metadata:
      creation_time   : 2023-05-05T13:44:16.000000Z
      handler_name    : Core Media Video
      encoder         : 'avc1'
Input #1, png_pipe, from '/var/www/html/project/static/images/templates/logo.png':
  Duration: N/A, bitrate: N/A
    Stream #1:0: Video: png, 1 reference frame, rgba(pc), 1920x1080 [SAR 2835:2835 DAR 16:9], 25 tbr, 25 tbn, 25 tbc
[Parsed_scale_0 @ 0x5625ec06dc80] w:1280 h:720 flags:'bilinear' interl:0
[Parsed_scale_2 @ 0x5625ebf8abc0] w:1280 h:720 flags:'bilinear' interl:0
Stream mapping:
  Stream #0:1 (h264) -> scale (graph 0)
  Stream #1:0 (png) -> scale (graph 0)
  overlay (graph 0) -> Stream #0:0 (libx264)
  Stream #0:0 -> #0:1 (aac (native) -> aac (native))
Press [q] to stop, [?] for help
[graph_1_in_0_0 @ 0x5625ec3684c0] tb:1/48000 samplefmt:fltp samplerate:48000 chlayout:0x3
[h264 @ 0x5625ebf6da40] Reinit context to 640x352, pix_fmt: yuv420p
[Parsed_scale_0 @ 0x5625ebf97a80] w:1280 h:720 flags:'bilinear' interl:0
[Parsed_scale_2 @ 0x5625ebf9ba80] w:1280 h:720 flags:'bilinear' interl:0
[graph 0 input from stream 0:1 @ 0x5625ec575d40] w:640 h:352 pixfmt:yuv420p tb:1/90000 fr:32490000/1086407 sar:0/1 sws_param:flags=2
[graph 0 input from stream 1:0 @ 0x5625ec576e00] w:1920 h:1080 pixfmt:rgba tb:1/25 fr:25/1 sar:2835/2835 sws_param:flags=2
[Parsed_scale_0 @ 0x5625ebf97a80] w:640 h:352 fmt:yuv420p sar:0/1 -> w:1280 h:720 fmt:yuv420p sar:0/1 flags:0x2
[Parsed_setsar_1 @ 0x5625ec40a3c0] w:1280 h:720 sar:0/1 dar:16/9 -> sar:1/1 dar:16/9
[Parsed_scale_2 @ 0x5625ebf9ba80] w:1920 h:1080 fmt:rgba sar:2835/2835 -> w:1280 h:720 fmt:yuva420p sar:1/1 flags:0x2
[Parsed_setsar_3 @ 0x5625ec574340] w:1280 h:720 sar:1/1 dar:16/9 -> sar:1/1 dar:16/9
[Parsed_overlay_4 @ 0x5625ec574f80] main w:1280 h:720 fmt:yuv420p overlay w:1280 h:720 fmt:yuva420p
[Parsed_overlay_4 @ 0x5625ec574f80] [framesync @ 0x5625ec5750e8] Selected 1/90000 time base
[Parsed_overlay_4 @ 0x5625ec574f80] [framesync @ 0x5625ec5750e8] Sync level 2
[libx264 @ 0x5625ebf5e200] using SAR=1/1
[libx264 @ 0x5625ebf5e200] using cpu capabilities: MMX2 SSE2Fast SSSE3 SSE4.2 AVX FMA3 BMI2 AVX2
[libx264 @ 0x5625ebf5e200] profile High, level 3.1
[libx264 @ 0x5625ebf5e200] 264 - core 155 r2917 0a84d98 - H.264/MPEG-4 AVC codec - Copyleft 2003-2018 - http://www.videolan.org/x264.html - options: cabac=1 ref=1 deblock=1:0:0 analyse=0x3:0x113 me=hex subme=2 psy=1 psy_rd=1.00:0.00 mixed_ref=0 me_range=16 chroma_me=1 trellis=0 8x8dct=1 cqm=0 deadzone=21,11 fast_pskip=1 chroma_qp_offset=0 threads=22 lookahead_threads=5 sliced_threads=0 nr=0 decimate=1 interlaced=0 bluray_compat=0 constrained_intra=0 bframes=3 b_pyramid=2 b_adapt=1 b_bias=0 direct=1 weightb=1 open_gop=0 weightp=1 keyint=250 keyint_min=25 scenecut=40 intra_refresh=0 rc_lookahead=10 rc=crf mbtree=1 crf=18.0 qcomp=0.60 qpmin=0 qpmax=69 qpstep=4 ip_ratio=1.40 aq=1:1.00
Output #0, mp4, to '/var/www/html/project/media/video/watermarks/3b8f1d9f-4357-478c-b1a0-f3b876b9cb78.mp4':
  Metadata:
    major_brand     : qt  
    minor_version   : 0
    compatible_brands: qt  
    com.apple.quicktime.creationdate: 2023-05-05T15:41:32+02:00
    com.apple.photos.originating.signature: AdsmqO0JlER9/CoZSK5D7NfIensC
    encoder         : Lavf58.29.100
    Stream #0:0: Video: h264 (libx264), 1 reference frame (avc1 / 0x31637661), yuv420p, 1280x720 [SAR 1:1 DAR 16:9], q=-1--1, 29.91 fps, 32490000.00 tbn, 29.91 tbc (default)
    Metadata:
      encoder         : Lavc58.54.100 libx264
    Side data:
      cpb: bitrate max/min/avg: 0/0/0 buffer size: 0 vbv_delay: -1
    Stream #0:1(und): Audio: aac (LC) (mp4a / 0x6134706D), 48000 Hz, stereo, fltp, delay 1024, 128 kb/s (default)
    Metadata:
      creation_time   : 2023-05-05T13:44:16.000000Z
      handler_name    : Core Media Audio
      encoder         : Lavc58.54.100 aac
Past duration 0.874992 too large
Past duration 0.968742 too large
Past duration 0.656242 too large
Past duration 0.749992 too large
Past duration 0.843742 too large
    Last message repeated 3 times
Past duration 0.874992 too large
    Last message repeated 3 times
Past duration 0.906242 too large
    Last message repeated 4 times
Past duration 0.937492 too large
    Last message repeated 3 times
Past duration 0.968742 too large
    Last message repeated 2 times
Past duration 0.999992 too large
    Last message repeated 4 times
Past duration 0.624992 too large
*** dropping frame 227 from stream 0 at ts 228
Past duration 0.624992 too large
    Last message repeated 2 times
Past duration 0.656242 too large
    Last message repeated 5 times
Past duration 0.687492 too large
    Last message repeated 4 times
Past duration 0.718742 too large
    Last message repeated 19 times
Past duration 0.749992 too large
    Last message repeated 7 times
Past duration 0.781242 too large
    Last message repeated 7 times
Past duration 0.812492 too large
    Last message repeated 5 times
Past duration 0.843742 too large
    Last message repeated 6 times
Past duration 0.874992 too large
    Last message repeated 3 times
Past duration 0.906242 too large
    Last message repeated 3 times
Past duration 0.937492 too large
    Last message repeated 4 times
Past duration 0.968742 too large
    Last message repeated 4 times
Past duration 0.999992 too large
    Last message repeated 22 times
Past duration 0.968742 too large
Past duration 0.999992 too large
    Last message repeated 4 times
[Parsed_overlay_4 @ 0x5625ec574f80] [framesync @ 0x5625ec5750e8] Sync level 0
No more output streams to write to, finishing.
frame=  360 fps= 74 q=-1.0 Lsize=   14791kB time=00:00:12.07 bitrate=10035.0kbits/s dup=0 drop=1 speed=2.48x    
[AVIOContext @ 0x5625ebf3e0c0] Statistics: 0 seeks, 10 writeouts
video:14586kB audio:191kB subtitle:0kB other streams:0kB global headers:0kB muxing overhead: 0.091401%
Input file #0 (/var/www/html/project/media/video/original/3b8f1d9f-4357-478c-b1a0-f3b876b9cb78.mp4):
  Input stream #0:0 (audio): 566 packets read (144896 bytes); 566 frames decoded (579584 samples); 
  Input stream #0:1 (video): 361 packets read (3826400 bytes); 361 frames decoded; 
  Total: 927 packets (3971296 bytes) demuxed
Input file #1 (/var/www/html/project/static/images/templates/logo.png):
  Input stream #1:0 (video): 1 packets read (111578 bytes); 1 frames decoded; 
  Total: 1 packets (111578 bytes) demuxed
Output file #0 (/var/www/html/project/media/video/watermarks/3b8f1d9f-4357-478c-b1a0-f3b876b9cb78.mp4):
  Output stream #0:0 (video): 360 frames encoded; 360 packets muxed (14936473 bytes); 
  Output stream #0:1 (audio): 566 frames encoded (579584 samples); 567 packets muxed (195809 bytes); 
  Total: 927 packets (15132282 bytes) muxed
[AVIOContext @ 0x5625ebf5ef80] Statistics: 2 seeks, 61 writeouts
[libx264 @ 0x5625ebf5e200] frame I:2     Avg QP:18.25  size:121838
[libx264 @ 0x5625ebf5e200] frame P:180   Avg QP:21.09  size: 52366
[libx264 @ 0x5625ebf5e200] frame B:178   Avg QP:22.73  size: 29586
[libx264 @ 0x5625ebf5e200] consecutive B-frames: 30.0%  6.7% 16.7% 46.7%
[libx264 @ 0x5625ebf5e200] mb I  I16..4:  9.4% 27.0% 63.6%
[libx264 @ 0x5625ebf5e200] mb P  I16..4:  6.5% 20.5%  8.0%  P16..4: 27.4% 18.2% 15.5%  0.0%  0.0%    skip: 3.9%
[libx264 @ 0x5625ebf5e200] mb B  I16..4:  2.8%  6.0%  1.3%  B16..8: 30.0% 17.7%  5.3%  direct:20.3%  skip:16.6%  L0:38.2% L1:34.0% BI:27.8%
[libx264 @ 0x5625ebf5e200] 8x8 transform intra:57.9% inter:40.5%
[libx264 @ 0x5625ebf5e200] coded y,uvDC,uvAC intra: 66.2% 75.7% 28.3% inter: 45.8% 42.6% 5.3%
[libx264 @ 0x5625ebf5e200] i16 v,h,dc,p: 24% 44% 19% 13%
[libx264 @ 0x5625ebf5e200] i8 v,h,dc,ddl,ddr,vr,hd,vl,hu: 13% 35% 17%  5%  5%  4%  9%  4%  8%
[libx264 @ 0x5625ebf5e200] i4 v,h,dc,ddl,ddr,vr,hd,vl,hu: 16% 26% 12%  6%  9%  6% 11%  6%  9%
[libx264 @ 0x5625ebf5e200] i8c dc,h,v,p: 40% 31% 17% 12%
[libx264 @ 0x5625ebf5e200] Weighted P-Frames: Y:4.4% UV:1.7%
[libx264 @ 0x5625ebf5e200] kb/s:9843.93
[aac @ 0x5625ebfae640] Qavg: 425.784
[AVIOContext @ 0x5625ebf47040] Statistics: 16673248 bytes read, 496 seeks
[AVIOContext @ 0x5625ebf5dbc0] Statistics: 111578 bytes read, 0 seeks
